<?xml version="1.0" encoding="utf-8"?>
<!-- Generator: Adobe Illustrator 24.3.0, SVG Export Plug-In . SVG Version: 6.00 Build 0)  -->
<svg width="70" height="70" version="1.1" id="Layer_1" xmlns="http://www.w3.org/2000/svg" xmlns:xlink="http://www.w3.org/1999/xlink" x="0px" y="0px"
	 viewBox="0 0 70 70" style="enable-background:new 0 0 70 70;" xml:space="preserve">
<style type="text/css">
	.st0{clip-path:url(#SVGID_2_);}
	.st1{fill:#FF6D2D;}
	.st2{fill:#154EA0;}
</style>
<g>
	<g>
		<defs>
			<rect id="SVGID_1_" x="0.2" width="69.2" height="69.2"/>
		</defs>
		<clipPath id="SVGID_2_">
			<use xlink:href="#SVGID_1_"  style="overflow:visible;"/>
		</clipPath>
		<g class="st0">
			<path class="st1" d="M44.5,33l3.5-5.5l5-2.5c0.7-0.2,2.1-0.4,2.5,0s6.2,8.2,9,12l2.5,4.5c-0.5,1-1.6,3.1-2,3.5s-4.2,2.2-6,3
				c-1,0.2-3.1,0.5-3.5,0.5S50.3,42.2,48,39l-2.6-4.5L44.5,33z"/>
			<path class="st1" d="M55.5,48.5c-0.4,0-5.2-6.3-7.5-9.5l-2.6-4.5h-1.9h-5c-0.5,0-3,1-4,1.5l-3,1.5c-1,0.5-2,1.5-2.5,2
				s-1.5,2-1.5,2.5s0,1.5,0.5,2s1.5,1,2,1h3c0.8,0,3-1,4-1.5c0.3,0.2,1.1,0.6,1.5,1s3.8,2.8,5.5,4l4,4c0.7,0.3,2.1,0.9,2.5,0.5
				s1.8-1.5,2.5-2l1.5-1L55.5,48.5z"/>
			<path class="st1" d="M15.5,54c0,0.8,1.3,2.3,2,3l3.5,3l2,1.5l2,2c0.7,0.3,2,1.1,2,1.5s2,0.8,3,1c0.5-0.3,1.6-1.1,2-1.5
				c0.5-0.5,0.5-0.5,0.5-1.5s0-2-0.5-3s-0.5-3-1-3.5s-2.5-1.5-2.5-2s-1.5-2.5-2-3s-1.5-2.5-2-3s-2-1.5-3-1s-4,3-4.5,3.5
				C16.6,51.4,15.8,53.2,15.5,54z"/>
			<path class="st1" d="M25,5c3,4.2,11.6,12.3,22,11.5l-2,6L42,25l-9.5,3L25,25.5l-4.5-8L21,11l2.5-4.5L25,5z"/>
			<path class="st2" d="M33.7,18c-0.5,0-1.2-0.1-1.6-0.6c-0.2-0.2-0.3-0.3-0.4-0.5c-1.1-1.1-2.9,0.4-1.8,1.9l0.3,0.3
				c0.2,0.2,0.5,0.5,0.9,0.8s0.9,0.5,1.5,0.6v1.9c0,0.7,0.5,1.2,1.2,1.2s1.2-0.5,1.2-1.2v-1.9c0.9-0.2,1.6-0.6,2.2-1.3
				c0.6-0.6,0.9-1.5,0.9-2.5c0-0.7-0.1-1.3-0.4-1.8c-0.3-0.5-0.6-0.8-1-1s-0.9-0.4-1.3-0.5c-0.5-0.1-0.9-0.2-1.3-0.3
				c-0.4-0.1-0.7-0.2-1-0.4s-0.4-0.4-0.4-0.7c0-1.4,2.1-1.2,3-0.5c1.4,1.1,2.9-0.9,1.3-2.1l-0.2-0.2c-0.3,0-0.5-0.2-0.8-0.3
				c-0.3-0.2-0.7-0.3-1-0.3V7.4V6.9c0-0.7-0.5-1.2-1.2-1.2s-1.2,0.5-1.2,1.2v1.6c-0.9,0.2-1.6,0.6-2.1,1.3s-0.8,1.4-0.8,2.2
				s0.2,1.5,0.6,2s0.8,0.9,1.4,1.1c0.5,0.2,1.1,0.4,1.6,0.5s1,0.3,1.4,0.4c0.4,0.2,0.6,0.4,0.6,0.7C35.2,17.6,34.7,18,33.7,18z"/>
			<path class="st2" d="M67.9,39L56.8,24.8c-0.7-1-1.9-1.5-3.1-1.5c-0.9,0-1.7,0.3-2.4,0.8L44,29.6c-0.8,0.6-1.4,1.6-1.5,2.6
				c0,0.2,0,0.3,0,0.5c-2.8-0.2-5.6,0-8.4,1.8L34,34.6l-7-1.1c0-0.2,0-0.5,0-0.7c-0.1-1-0.7-2-1.5-2.6l-7.3-5.5
				c-1.7-1.3-4.2-1-5.5,0.7l-2.6,3.4c-0.5,0.6-0.4,1.4,0.2,1.9c0.6,0.5,1.4,0.4,1.9-0.2l2.6-3.4c0.4-0.5,1.2-0.6,1.7-0.2l7.3,5.5
				c0.2,0.2,0.4,0.5,0.4,0.8s0,0.6-0.2,0.9L12.9,48.2c-0.4,0.5-1.2,0.6-1.7,0.2L4,42.9c-0.2-0.2-0.4-0.5-0.4-0.8s0-0.6,0.2-0.9
				l1.9-2.4c0.5-0.6,0.4-1.4-0.2-1.9s-1.4-0.4-1.9,0.2l-1.9,2.4c-0.6,0.8-0.9,1.8-0.8,2.9c0.1,1,0.7,2,1.5,2.6l7.3,5.5
				c0.7,0.5,1.5,0.8,2.4,0.8c0.5,0,1-0.1,1.4-0.3l0.9,1.3c-0.5,0.9-0.6,2.1-0.2,3.1c0.6,1.5,2,2.6,3.5,2.6c0,0.2,0.1,0.4,0.2,0.7
				c0.6,1.5,2,2.5,3.5,2.6v0.1c0.3,1.4,1.3,2.5,2.7,3c0.3,0.1,0.7,0.2,1,0.2c0.1,0.6,0.4,1.1,0.8,1.6c0.7,0.7,1.6,1.2,2.7,1.2
				c0.8,0,1.6-0.2,2.4-0.8l1.5,1.4c0.8,0.7,1.8,1.1,2.8,1.1s2-0.4,2.7-1.1c0.4-0.4,0.8-1,1-1.5c0.4,0.1,0.8,0.2,1.1,0.2
				c1,0,1.9-0.4,2.5-1.1c0.5-0.5,0.9-1.3,1.1-2c0.1,0,0.1,0,0.2,0l0,0c1.1,0,2.1-0.4,2.8-1.1c0.5-0.5,0.9-1.1,1-1.8
				c0.3,0.1,0.5,0.1,0.8,0.1s0.7,0,1-0.1c1.3-0.3,2.3-1.4,2.6-2.7c0.3-1.2,0-2.5-0.8-3.7c2.1-1.7,3-2.6,4-4.2
				c0.7,0.5,1.5,0.8,2.3,0.8c0.9,0,1.7-0.3,2.4-0.8l7.3-5.5c0.8-0.6,1.4-1.6,1.5-2.6C68.9,40.9,68.6,39.9,67.9,39z M18.3,55.2
				c-0.2,0.2-0.4,0.3-0.6,0.3c-0.4,0-0.8-0.4-1-0.9s-0.1-0.8,0.2-1.1l0,0l0,0l4.6-4.1c0.4-0.3,0.8-0.5,1.1-0.5c0.5,0,0.9,0.4,1,0.7
				c0.1,0.4,0.1,0.7-0.3,1l-0.8,0.7l0,0l0,0l-0.1,0.1L18.3,55.2z M22,58.4c-0.2,0.2-0.4,0.3-0.6,0.3c-0.4,0-0.9-0.4-1.1-0.9
				s0-0.8,0.1-0.9c0.1-0.1,0.1-0.1,0.2-0.2l0,0l0,0c0.3-0.2,2.6-2.3,3.7-3.3l0.1-0.1c0.4-0.3,0.8-0.5,1.1-0.5c0.5,0,0.9,0.4,1.1,0.8
				c0.1,0.4,0.1,0.7-0.3,1L26,54.8l0,0l0,0L22,58.4z M26.1,61.4L26.1,61.4l-0.4,0.3c-0.3,0.3-0.6,0.3-0.9,0.2
				c-0.4-0.1-0.8-0.5-0.9-0.9s0.1-0.7,0.4-1l0.5-0.4l0,0l3-2.6c0.7-0.6,1.4-0.7,1.9-0.2c0.1,0.1,0.6,0.7-0.1,1.4l-1.8,1.7
				c0,0,0,0-0.1,0.1l0,0L26.1,61.4L26.1,61.4z M27.9,64.4c-0.1-0.2-0.4-0.6,0-1l1.8-1.6c0.1-0.1,0.3-0.2,0.4-0.3l0,0
				c0.7-0.4,1.1,0.1,1.2,0.2c0.1,0.2,0.3,0.6-0.1,0.9L30,63.8l0,0l-0.5,0.5C28.6,65.1,28,64.6,27.9,64.4z M49.5,57.2
				c-0.1,0.3-0.3,0.6-0.7,0.7c-0.6,0.1-1.3-0.2-2-0.9c0-0.1-0.1-0.1-0.2-0.2l-5.1-5.1c-0.5-0.5-1.4-0.5-1.9,0s-0.5,1.4,0,1.9
				l5.1,5.1l0,0c0.2,0.2,0.3,0.5,0.3,0.8s-0.1,0.6-0.3,0.8s-0.5,0.3-0.9,0.3l0,0c-0.3,0-0.6-0.1-0.8-0.3c-0.1-0.1-0.2-0.2-0.3-0.3
				L39,56.5c-0.5-0.5-1.4-0.5-1.9,0s-0.5,1.4,0,1.9l3.6,3.6c0,0.1,0.1,0.1,0.1,0.2l0.2,0.2c0.2,0.4,0.1,1-0.3,1.4
				c-0.6,0.6-1.4,0.1-2-0.5L37,61.7c-0.5-0.5-1.4-0.5-1.9,0.1c-0.5,0.5-0.5,1.4,0.1,1.9l1.2,1.2l0,0c0,0,0.1,0.1,0.1,0.2
				c0,0.3-0.2,0.8-0.5,1.1c-0.4,0.4-1.2,0.4-1.7,0L33,64.9l0.2-0.1c1.3-1.2,1.6-3.1,0.5-4.5c-0.3-0.5-0.8-0.8-1.2-1.1
				c0.7-1.3,0.5-2.9-0.6-4.1c-0.6-0.7-1.5-1.1-2.4-1.2c0-0.3-0.1-0.7-0.2-1c-0.5-1.2-1.5-2.1-2.7-2.4c0.1-0.5,0-1.1-0.2-1.6
				c-0.6-1.5-2-2.5-3.6-2.5c-1,0-2,0.4-2.9,1.2l-3.5,3.1l-0.8-1L26,36.4l4.7,0.7L30,37.6c-3.8,2.5-4.1,5.4-3.1,7.3
				c0.8,1.5,2.4,2.4,4.2,2.4c0.7,0,1.4-0.1,2.1-0.5c0,0,0,0,0.1,0l3.6-1.8l2.1,1.9l0,0l0,0l9.6,8.5C49.2,55.8,49.6,56.6,49.5,57.2z
				 M49.3,52.3l-8.7-7.8L37.9,42c-0.4-0.4-1-0.5-1.5-0.2L31.9,44c-1.2,0.5-2.4,0-2.8-0.7c-0.6-1,0.3-2.5,2.2-3.7l4.3-2.8
				c2.3-1.5,4.8-1.6,8.1-1.2L53.3,48C52.4,49.7,51.8,50.3,49.3,52.3z M66,41.6c0,0.3-0.2,0.6-0.4,0.8l-7.3,5.5
				c-0.3,0.2-0.5,0.2-0.7,0.2c-0.4,0-0.7-0.2-1-0.5L45.5,33.4c-0.2-0.2-0.3-0.5-0.2-0.9c0-0.3,0.2-0.6,0.4-0.8l7.3-5.5
				c0.3-0.2,0.5-0.2,0.7-0.2c0.4,0,0.7,0.2,1,0.5l11.1,14.2C66,41,66.1,41.3,66,41.6z"/>
			<path class="st2" d="M26.8,27.7c2.1,1.2,4.6,1.8,7,1.8c8.1,0,14.7-6.6,14.7-14.7c0-5.7-3.3-10.9-8.4-13.3c-2-1-4.1-1.5-6.3-1.5
				c-8.1,0-14.7,6.6-14.7,14.7C19.1,20.1,22,25.1,26.8,27.7z M33.8,2.7c1.8,0,3.5,0.4,5.1,1.1c4.2,2,6.9,6.2,6.9,10.9
				c0,6.6-5.4,12-12,12c-2,0-4-0.5-5.7-1.4c-3.9-2.1-6.3-6.2-6.3-10.6C21.8,8.1,27.2,2.7,33.8,2.7z"/>
			<path class="st1" d="M7,34.9c0.3,0.2,0.6,0.3,0.8,0.3c0.4,0,0.8-0.2,1.1-0.5l0,0c0.5-0.6,0.4-1.4-0.2-1.9
				c-0.6-0.5-1.4-0.4-1.9,0.2l0,0C6.3,33.5,6.4,34.4,7,34.9z"/>
		</g>
	</g>
</g>
</svg>
