<svg id="Layer_1" data-name="Layer 1" xmlns="http://www.w3.org/2000/svg" width="4.1in" height="1.8in" viewBox="0 0 294.3 132.3"><defs><style>.cls-1{fill:#ff672d;}.cls-2{fill:#2840a5;}</style></defs><path class="cls-1" d="M48.5,51.6l4.7,1.7C64,56.5,70.7,64,75.4,73.4c0,.1.1.2.1.3,1.3,4.1,2.2,3.4,5.4,2.9,11.5-1.7,22.9-3.4,34.4-4.9q10.7-1.4,21.6-2.1c10.1-.6,20.3-1.2,30.4-1.3s17.3.3,25.9.8,17.7,1.4,26.4,2.6c15.4,2.1,30.6,5.3,44.6,12.1a134.3,134.3,0,0,1,13.3,7.6c5.2,3.3,7.7,8.3,8.3,14.3s-1.9,8.7-5,12.2a17.5,17.5,0,0,1-11.8,5.7l-3,.3c-1.7.1-2.5-.5-2.8-2.1a2.7,2.7,0,0,1,1.8-3.1l2.6-.7c2.3-.4,3.1-1.6,2.5-3.8a19,19,0,0,0-8.4-10.9c-5-3.3-10.7-5.1-16.4-6.5-10.8-2.5-21.5-5.1-32.3-7.1s-20.2-3.2-30.4-4.4a295.3,295.3,0,0,0-47-2c-10,.3-20,1-30,2-7.9.7-15.6,2-23.4,3-1.6.3-2,.8-1.8,2.4,1.1,12.1-2.2,22.9-10.9,31.7a27.2,27.2,0,0,1-21.2,8.1c-6.3-.3-10.7-3.5-13-9.1-3.3-8.1-1.5-15.3,3.4-22.2A43.5,43.5,0,0,1,58,84.1l4.7-2c1.8-.7,2.1-1.5,1.2-3.1C60,72.3,54.6,67.3,46.8,65.2L35.9,62c-3.2-1-4.5-3.6-5.2-6.4a6.7,6.7,0,0,1,2.5-7.2c3.2-2.5,6.4-4.7,9.6-7.1s5.4-4,7.8-6.3c4.8-4.7,5.7-10.5,3.6-16.5s-6.9-7.8-12.6-7.3-9.1,3.2-12.8,6.4c-5.7,4.9-9.8,10.8-11,18.2a35.3,35.3,0,0,0-.2,9.2,66.2,66.2,0,0,0,8.5,28c2.6,4.5,5.4,9,8.2,13.5a8.2,8.2,0,0,1-1.4,10,4,4,0,0,1-3.9.8,12.1,12.1,0,0,1-5.2-3.4A68.2,68.2,0,0,1,13.6,79.7,73.8,73.8,0,0,1,3.9,51.3c-1-8-.7-15.9,2.4-23.4C10.1,18.6,17,12,25.9,7.4,32.2,4.1,39,2,46.3,2.5c11.1.7,18.5,8.8,19.1,18,.5,5.8,0,11.4-2.7,16.7S56.3,45.7,52,49Zm.4,74.1a25.4,25.4,0,0,0,3.7-1c5.3-2.4,8.7-6.6,11-11.8s3.2-11.5,3.7-17.5c.2-3.4-1.1-4.4-4.4-3l-1,.5-9.2,5.6c-1,.6-1.9,1.4-2.8,2-5.7,3.9-9,9-9.3,15.8S43.7,125.5,48.9,125.7Z"/><path class="cls-1" d="M284.1,2.4c3.8-.2,6,1.9,7.8,4.8s1.3,7-.8,10.2a52.6,52.6,0,0,1-4.9,6.5,124.9,124.9,0,0,1-23.9,21.4c-1.6,1-3.3,1.9-4.9,3a2.7,2.7,0,0,0-1.4,1.4c-.9,2.5-1.8,5.1-2.6,7.8a8,8,0,0,0,.9,6,5.2,5.2,0,0,0,6.2,2.6,22.8,22.8,0,0,0,4.5-2c1.8-1.1,2.6-1.2,3.6-.1s.8,2.4-.7,3.5-5.9,4.3-9.7,4.9c-7.3,1.1-15.8-4.2-17.2-12-.8-4.2.4-8.1,1.7-12,3-8.8,7.7-16.7,13.1-24.3,4.3-5.9,9-11.5,15-16,3.2-2.5,6.7-4.7,10.9-5.5h2.4ZM259.7,41.8l.3.2.5-.2a10.9,10.9,0,0,0,2.3-1.4c9.8-7.3,17.5-16.3,24-26.3a6.9,6.9,0,0,0,1-2.5c.4-1.5-.7-2.4-2.1-1.8a17.1,17.1,0,0,0-4.2,2.8c-7.8,7.2-13.9,15.7-19.3,24.7C261.3,38.8,260.5,40.3,259.7,41.8Z"/><path class="cls-1" d="M150.1,50.2C156,50,161,52,165.9,54s7.4,1,10.5-1.9a26.6,26.6,0,0,0,5.9-7.1c.8-1.4,1.9-1.8,3-1.3s1.5,1.6.8,3.1a31,31,0,0,1-12.3,13.3c-3.4,1.9-7.1,2-10.9,1.5s-9.8-1.7-14.7-.6c-1.7.4-3.4,1-5,1.5-3.5,1.2-5.7.4-7.5-2.4a3,3,0,0,1,.2-3.7,86,86,0,0,1,10.6-10.3c4.8-4.2,9.3-8.7,13.9-13.1.2-.1.3-.4.4-.5l-7.7-1.4a16,16,0,0,0-2.3-.3,13.8,13.8,0,0,0-9.6,2.8,10.1,10.1,0,0,1-2.3,1.2,1.5,1.5,0,0,1-2.1-1.7,15.2,15.2,0,0,1,.9-2.8,23.6,23.6,0,0,1,7.8-8.8c2.6-1.7,5.5-1.5,8.5-1.2s7.8.9,11.7,1.1a12.3,12.3,0,0,0,4.4-1.3c1.3-.5,2.5-1.6,4-.8s3.3,2.6,3.5,4.8a3.5,3.5,0,0,1-1.2,2.4c-2.2,2.2-4.5,4.3-6.8,6.3L151.3,48.9C150.9,49.2,150.7,49.6,150.1,50.2Z"/><path class="cls-1" d="M204.8,47c-1.2,4.1,1.9,9,6.3,10.4s8.8.2,12.8-1.9a25.1,25.1,0,0,0,7.5-6.2,3.4,3.4,0,0,1,2-1.3,2.2,2.2,0,0,1,1.8,3.5,28.6,28.6,0,0,1-15.4,11c-7.9,2.3-15.5,2-22.4-3-4.7-3.3-6.5-8-5.9-13.5a28.1,28.1,0,0,1,14.7-21.9c3.8-2.1,7.8-3.2,12.2-2.2,6.4,1.4,11.7,8.5,8.1,15.9-2.7,5.4-6.7,8.9-12.8,9.9a20.1,20.1,0,0,1-8.1-.5Zm13.7-20.2-.2-.3a23.2,23.2,0,0,0-3.9,1.8,24.4,24.4,0,0,0-7.8,9.7,17.4,17.4,0,0,0-1.1,3.9c-.2.7.2,1.1,1,1a23.9,23.9,0,0,0,4.6-1.2,18.9,18.9,0,0,0,8.6-8.4,11.2,11.2,0,0,0,1.3-3.9C221.2,27.7,220.2,26.8,218.5,26.8Z"/><path class="cls-1" d="M109.8,53.4a108.5,108.5,0,0,1,4.3-24.9c.7-2.3,2-2.9,4.3-2.3a17.2,17.2,0,0,1,6.8,3.3,3.3,3.3,0,0,1,1.1,3.3c-.2,2.4-.6,4.8-1,7.2a62.5,62.5,0,0,0-1.7,14.9,25.6,25.6,0,0,1-.1,6.2c-.8,4.2-4.7,6.3-8.7,5.2a5.4,5.4,0,0,1-3.4-3.2A23.5,23.5,0,0,1,109.8,53.4Z"/><path class="cls-1" d="M100.2,35.4c-.5,3.2-1.1,6.7-1.6,10.3a45.8,45.8,0,0,0-.3,12.8A11.3,11.3,0,0,1,96.4,66c-2,3-8.5,3.7-10.6-.9a20.8,20.8,0,0,1-1.6-10.7A126.7,126.7,0,0,1,87,34c.3-1.3.6-2.6,1-3.8s1.8-2.9,4-2.4a14.8,14.8,0,0,1,6.9,3.3C100.3,32.2,100,33.6,100.2,35.4Z"/><path class="cls-2" d="M103.6,9.2c-.4,3.9-1.5,7.2-5.1,9.3A5.5,5.5,0,0,1,90.4,15,11.9,11.9,0,0,1,93.3,4.1a6.1,6.1,0,0,1,6.2-1.9c2.5.7,3.4,2.5,3.8,4.8Z"/><path class="cls-2" d="M117.5,12.1c0-4.6,3.3-9.1,7.3-10a4.9,4.9,0,0,1,6.1,3.7c.6,3.5.4,6.9-2,9.8s-3.7,3.5-6.6,3a4.9,4.9,0,0,1-4.6-4.6C117.6,13.4,117.6,12.7,117.5,12.1Z"/></svg>