<?xml version="1.0" encoding="utf-8"?>
<!-- Generator: Adobe Illustrator 24.3.0, SVG Export Plug-In . SVG Version: 6.00 Build 0)  -->
<svg width="70" height="70" version="1.1" id="Layer_1" xmlns="http://www.w3.org/2000/svg" xmlns:xlink="http://www.w3.org/1999/xlink" x="0px" y="0px"
	 viewBox="0 0 70 70" style="enable-background:new 0 0 70 70;" xml:space="preserve">
<style type="text/css">
	.st0{fill:#FF6D2D;}
	.st1{fill:none;}
	.st2{fill:#154EA0;}
</style>
<path class="st0" d="M36.3,36c-0.6,0.4-1.1,0.9-1.6,1.4H15.1c-0.8,0-1.4-0.6-1.4-1.4s0.6-1.4,1.4-1.4h20.2L36.3,36z"/>
<path class="st0" d="M31.5,41.9c-0.4,0.9-0.8,1.8-1.1,2.8H15.1c-0.8,0-1.4-0.6-1.4-1.4s0.6-1.4,1.4-1.4H31.5z"/>
<path class="st0" d="M15.1,30.1h14.6c0.8,0,1.4-0.6,1.4-1.4s-0.6-1.4-1.4-1.4H15.1c-0.8,0-1.4,0.6-1.4,1.4
	C13.7,29.5,14.3,30.1,15.1,30.1z"/>
<rect x="0.4" class="st1" width="69.2" height="69.2"/>
<path class="st2" d="M30.7,37.4C30.7,37.4,30.7,37.4,30.7,37.4c0,0,0,0.1-0.1,0.1c0,0,0,0.1-0.1,0.1c0,0-0.1,0.1-0.1,0.1
	c-0.9,1.2-1.6,2.5-2.1,3.8c0,0.1-0.1,0.2-0.1,0.3h3.3c0.8-1.7,1.9-3.2,3.3-4.5H30.7z M50.6,30V16.9c0-0.4-0.2-0.7-0.4-1L35.5,0.4
	c-0.2-0.2-0.6-0.4-1-0.4H11.2C6.9,0,3.5,3.5,3.5,7.8v44c0,4.3,3.4,7.7,7.7,7.7h18.4c3.5,5.8,9.8,9.6,17,9.6
	c10.9,0,19.9-8.9,19.9-19.8C66.4,39.8,59.6,31.8,50.6,30z M35.8,5.1h0.1l9.8,10.4h-6.4c-1.9,0-3.5-1.6-3.5-3.5V5.1z M11.2,56.7
	c-2.7,0-4.8-2.2-4.8-4.9v-44c0-2.7,2.1-4.9,4.8-4.9H33V12c0,3.5,2.8,6.4,6.3,6.4h8.4v11.3c-0.4,0-0.8-0.1-1.2-0.1
	c-5,0-9.7,1.9-13.2,5c-0.6,0.6-2.6,2.8-2.6,2.8s0,0,0,0s0,0,0,0.1c0,0,0,0.1-0.1,0.1c0,0-0.1,0.1-0.1,0.1c-0.9,1.2-1.6,2.5-2.1,3.8
	c0,0.1-0.1,0.2-0.1,0.3c-0.6,1.6-0.9,2.8-0.9,2.8c-0.4,1.4-0.5,3-0.5,4.6c0,2.6,0.5,5.2,1.4,7.3L11.2,56.7z M46.6,66.3
	c-9.3,0-16.9-7.6-16.9-16.9c0-1.6,0.2-3.2,0.7-4.7c0.3-1,0.7-1.9,1.1-2.8c0.8-1.7,1.9-3.2,3.3-4.5c0.5-0.5,1.1-1,1.6-1.4
	c2.8-2.2,6.4-3.5,10.3-3.5c9.4,0,16.9,7.6,16.9,16.9C63.5,58.7,55.9,66.3,46.6,66.3z M30.7,37.4C30.7,37.4,30.7,37.4,30.7,37.4
	c0,0,0,0.1-0.1,0.1c0,0,0,0.1-0.1,0.1c0,0-0.1,0.1-0.1,0.1c-0.9,1.2-1.6,2.5-2.1,3.8c0,0.1-0.1,0.2-0.1,0.3h3.3
	c0.8-1.7,1.9-3.2,3.3-4.5H30.7z"/>
<path class="st0" d="M46.1,40.5c0.1,0,0.2,0,0.3,0s0.3,0,0.4-0.1c1.9,0.2,3.4,1.7,3.4,3.7c0,0.8,0.6,1.4,1.4,1.4
	c0.8,0,1.4-0.6,1.4-1.4c0-3.2-2.2-5.8-5.2-6.4v-0.9c0-0.8-0.6-1.4-1.4-1.4c-0.8,0-1.4,0.6-1.4,1.4v1c-2.9,0.7-5,3.3-5,6.4
	c0,3.6,3,6.6,6.6,6.6c2,0,3.7,1.7,3.7,3.7s-1.6,3.7-3.7,3.7c-2,0-3.7-1.7-3.7-3.7c0-0.8-0.6-1.4-1.4-1.4c-0.8,0-1.4,0.6-1.4,1.4
	c0,3.1,2.1,5.7,5,6.4v1.5c0,0.8,0.6,1.4,1.4,1.4c0.8,0,1.4-0.6,1.4-1.4V61c3-0.6,5.2-3.3,5.2-6.4c0-3.6-3-6.6-6.6-6.6
	c-2,0-3.7-1.7-3.7-3.7C42.9,42.3,44.3,40.7,46.1,40.5z"/>
<path class="st2" d="M28.3,41.6c0.5-1.4,1.3-2.7,2.2-4C30.1,38.3,28.9,40.3,28.3,41.6z"/>
<line class="st1" x1="33.3" y1="34.6" x2="39.3" y2="34.6"/>
</svg>
