<?xml version="1.0" encoding="utf-8"?>
<!-- Generator: Adobe Illustrator 24.3.0, SVG Export Plug-In . SVG Version: 6.00 Build 0)  -->
<svg version="1.1" id="Layer_1" xmlns="http://www.w3.org/2000/svg" xmlns:xlink="http://www.w3.org/1999/xlink" x="0px" y="0px"
	 viewBox="0 0 200.1 174.5" style="enable-background:new 0 0 200.1 174.5;" xml:space="preserve">
<style type="text/css">
	.st0{fill:#FF6D2D;}
	.st1{fill:#FFFFFF;}
	.st2{fill:#154EA0;}
</style>
<path class="st0" d="M0,149.6c0,13.7,12.7,24.8,28.4,24.8h143c15.7,0,28.4-11.1,28.4-24.8V24.8c0-13.7-12.7-24.8-28.4-24.8h-143
	C12.7,0,0,11.1,0,24.8V149.6z"/>
<g>
	<path class="st1" d="M43.2,83.6c1,0.3,1.8,0.6,2.6,0.9c5.9,1.7,9.6,5.6,12.2,10.5c0,0,0,0.1,0.1,0.1c0.7,2.2,1.2,1.8,3,1.5
		c6.3-0.9,12.6-1.8,18.9-2.6c3.9-0.5,7.9-0.8,11.9-1.1c5.6-0.3,11.2-0.6,16.8-0.7c4.7-0.1,9.5,0.1,14.2,0.4
		c4.8,0.3,9.7,0.7,14.5,1.3c8.5,1.1,16.8,2.8,24.5,6.4c2.5,1.2,4.9,2.6,7.3,4c2.9,1.7,4.2,4.3,4.6,7.4c0.3,2.6-1.1,4.6-2.8,6.4
		c-1.7,1.8-3.9,2.7-6.5,3c-0.6,0.1-1.1,0.1-1.7,0.1c-0.9,0-1.4-0.3-1.5-1.1c-0.2-0.7,0.3-1.4,1-1.7c0.5-0.1,1-0.2,1.4-0.3
		c1.2-0.2,1.7-0.9,1.3-2c-0.7-2.5-2.3-4.3-4.6-5.7c-2.7-1.7-5.9-2.7-9-3.4c-5.9-1.3-11.8-2.7-17.7-3.7c-5.5-1-11.1-1.7-16.7-2.3
		c-8.6-1-17.2-1.3-25.8-1c-5.5,0.2-11,0.5-16.5,1c-4.3,0.4-8.6,1.1-12.8,1.6c-0.9,0.1-1.1,0.4-1,1.2c0.6,6.3-1.2,12-6,16.6
		c-3.1,3-7.1,4.4-11.6,4.2c-3.4-0.2-5.9-1.8-7.1-4.7c-1.8-4.2-0.8-8,1.9-11.6c2.7-3.6,6.3-6.1,10.6-7.9c0.9-0.4,1.7-0.7,2.6-1
		c0.9-0.4,1.1-0.8,0.6-1.6c-2.1-3.5-5.1-6.1-9.4-7.2c-2-0.5-4-1.1-6-1.7c-1.8-0.5-2.5-1.8-2.9-3.4c-0.4-1.5,0.1-2.8,1.4-3.7
		c1.7-1.3,3.5-2.5,5.3-3.7c1.5-1.1,3-2.1,4.3-3.3c2.7-2.4,3.1-5.5,2-8.6c-1.1-3-3.8-4-6.9-3.8c-2.8,0.2-5,1.7-7,3.3
		c-3.1,2.6-5.4,5.7-6.1,9.5c-0.3,1.6-0.2,3.2-0.1,4.8c0.4,5.2,1.9,10.1,4.7,14.6c1.4,2.4,3,4.7,4.5,7.1c1,1.6,0.7,4-0.8,5.2
		c-0.6,0.5-1.4,0.6-2.2,0.4c-1.1-0.3-2-1-2.8-1.8c-2.3-2.2-4-4.8-5.6-7.4c-2.8-4.6-4.7-9.6-5.3-14.9c-0.5-4.2-0.4-8.3,1.3-12.3
		c2.1-4.8,5.9-8.3,10.8-10.7C34.3,58.8,38,57.7,42,58c6.1,0.4,10.2,4.6,10.5,9.4c0.2,3.1,0,6-1.5,8.8c-1.3,2.6-3.5,4.4-5.9,6.2
		C44.6,82.7,44,83.1,43.2,83.6z M43.4,122.4c0.7-0.2,1.4-0.3,2-0.5c2.9-1.3,4.8-3.5,6.1-6.2c1.4-2.9,1.8-6,2-9.1
		c0.1-1.8-0.6-2.3-2.4-1.6c-0.2,0.1-0.4,0.2-0.6,0.3c-1.7,1-3.4,1.9-5.1,2.9c-0.5,0.3-1,0.7-1.5,1c-3.1,2-4.9,4.7-5.1,8.3
		C38.7,120.2,40.6,122.3,43.4,122.4z"/>
	<path class="st1" d="M172.7,57.9c2.1-0.1,3.3,1,4.2,2.5c1.2,1.9,0.8,3.6-0.4,5.3c-0.8,1.2-1.7,2.4-2.7,3.4
		c-3.9,4.2-8.3,8-13.2,11.1c-0.9,0.6-1.8,1-2.7,1.6c-0.3,0.2-0.6,0.4-0.7,0.7c-0.5,1.3-1,2.7-1.4,4.1c-0.3,1.1-0.1,2.2,0.5,3.2
		c0.6,1.2,2.1,1.8,3.4,1.4c0.9-0.3,1.7-0.6,2.5-1.1c1-0.6,1.5-0.6,2-0.1c0.4,0.5,0.5,1.3-0.4,1.9c-1.6,1.1-3.2,2.2-5.3,2.5
		c-4,0.6-8.7-2.2-9.5-6.3c-0.4-2.2,0.2-4.2,0.9-6.2c1.6-4.6,4.3-8.7,7.2-12.7c2.3-3.1,5-6,8.2-8.4c1.8-1.3,3.7-2.4,6-2.9
		c0.1,0,0.2-0.1,0.3-0.1C172.1,58,172.4,57.9,172.7,57.9z M159.3,78.5c0,0,0.1,0.1,0.1,0.1c0.1,0,0.2,0,0.3-0.1
		c0.4-0.2,0.9-0.4,1.3-0.7c5.4-3.8,9.6-8.5,13.2-13.8c0.3-0.4,0.4-0.8,0.5-1.3c0.2-0.8-0.4-1.3-1.1-0.9c-0.8,0.4-1.7,0.8-2.3,1.4
		c-4.3,3.8-7.6,8.2-10.6,12.9C160.2,76.9,159.8,77.7,159.3,78.5z"/>
	<path class="st1" d="M99.1,82.9c3.2-0.1,6,0.9,8.7,2c2.2,0.8,4.1,0.5,5.8-1c1.3-1.1,2.4-2.3,3.2-3.7c0.4-0.7,1-0.9,1.7-0.7
		c0.7,0.3,0.8,0.8,0.4,1.6c-1.5,2.9-3.7,5.3-6.8,7c-1.8,1-3.9,1.1-5.9,0.8c-2.7-0.3-5.4-0.9-8.1-0.3c-0.9,0.2-1.8,0.5-2.7,0.8
		c-1.9,0.6-3.1,0.2-4.1-1.3c-0.4-0.7-0.4-1.3,0.1-1.9c1.7-2,3.7-3.7,5.8-5.4c2.6-2.2,5.1-4.5,7.7-6.8c0.1-0.1,0.1-0.2,0.2-0.3
		c-1.4-0.3-2.8-0.5-4.2-0.7c-0.4-0.1-0.8-0.1-1.3-0.2c-2-0.2-3.7,0.4-5.3,1.5c-0.4,0.3-0.8,0.5-1.3,0.6c-0.7,0.3-1.3-0.2-1.2-0.9
		c0.1-0.5,0.3-1,0.5-1.5c1-1.9,2.5-3.4,4.3-4.6c1.4-0.9,3-0.8,4.6-0.7c2.1,0.2,4.3,0.5,6.4,0.6c0.8,0,1.7-0.4,2.4-0.7
		c0.7-0.3,1.4-0.8,2.2-0.4c1,0.6,1.8,1.4,2,2.5c0.1,0.4-0.3,1-0.7,1.3c-1.2,1.1-2.5,2.2-3.7,3.3c-3.4,2.8-6.7,5.6-10.1,8.4
		C99.5,82.4,99.4,82.6,99.1,82.9z"/>
	<path class="st1" d="M129.1,81.2c-0.6,2.1,1.1,4.7,3.5,5.4c2.5,0.7,4.8,0.1,7-1c1.6-0.8,3-1.9,4.1-3.2c0.3-0.3,0.7-0.6,1.1-0.6
		c0.4,0,0.9,0.3,1.1,0.6c0.2,0.3,0.1,0.9-0.1,1.2c-2.2,2.7-4.9,4.8-8.5,5.8c-4.3,1.2-8.5,1-12.3-1.6c-2.6-1.8-3.6-4.2-3.2-7.1
		c0.6-5,3.3-8.9,8.1-11.4c2.1-1.1,4.3-1.6,6.7-1.2c3.5,0.7,6.4,4.4,4.4,8.3c-1.4,2.8-3.6,4.6-7,5.1c-1.5,0.2-3,0.1-4.5-0.3
		C129.4,81.3,129.3,81.3,129.1,81.2z M136.7,70.7c0-0.1-0.1-0.1-0.1-0.2c-0.7,0.3-1.5,0.5-2.2,0.9c-2,1.3-3.3,3.1-4.3,5.1
		c-0.3,0.6-0.4,1.3-0.6,2c-0.1,0.4,0.1,0.6,0.5,0.5c0.9-0.2,1.8-0.3,2.6-0.6c2.1-1,3.7-2.5,4.7-4.4c0.4-0.6,0.6-1.3,0.7-2
		C138.2,71.2,137.6,70.7,136.7,70.7z"/>
	<path class="st1" d="M76.9,84.6c0.3-4.1,0.9-8.6,2.4-13c0.4-1.2,1.1-1.5,2.4-1.2c1.4,0.3,2.6,0.9,3.7,1.8c0.6,0.5,0.7,1.1,0.6,1.7
		c-0.1,1.2-0.3,2.5-0.6,3.7c-0.5,2.6-1,5.2-0.9,7.8c0,1.1,0.2,2.2-0.1,3.2c-0.5,2.2-2.6,3.3-4.8,2.7c-0.9-0.3-1.5-0.9-1.9-1.6
		C77.1,88.2,76.9,86.6,76.9,84.6z"/>
	<path class="st1" d="M71.7,75.2c-0.3,1.7-0.6,3.5-0.9,5.4c-0.3,2.2-0.5,4.4-0.2,6.7c0.2,1.4-0.2,2.7-1,3.9c-1.1,1.6-4.7,2-5.8-0.5
		c-0.9-1.8-1-3.7-0.9-5.6c0.3-3.6,0.7-7.1,1.5-10.6c0.2-0.7,0.3-1.4,0.5-2c0.4-1.1,1-1.5,2.2-1.3c1.4,0.3,2.7,0.9,3.8,1.7
		C71.7,73.5,71.5,74.2,71.7,75.2z"/>
	<path class="st2" d="M73.5,61.5c-0.2,2-0.8,3.8-2.8,4.8c-1.8,1-4,0.1-4.5-1.8c-0.5-2.1,0-4,1.6-5.7c0.9-1,2.1-1.3,3.4-1
		c1.3,0.3,1.8,1.3,2.1,2.5C73.4,60.7,73.4,61.1,73.5,61.5z"/>
	<path class="st2" d="M81.1,63c0-2.4,1.8-4.7,4-5.2c1.6-0.3,3,0.4,3.3,1.9c0.4,1.8,0.2,3.6-1.1,5.1c-0.9,1.1-2,1.8-3.6,1.6
		c-1.5-0.2-2.3-1-2.5-2.4C81.2,63.7,81.2,63.3,81.1,63z"/>
</g>
</svg>
