<?xml version="1.0" encoding="utf-8"?>
<!-- Generator: Adobe Illustrator 24.3.0, SVG Export Plug-In . SVG Version: 6.00 Build 0)  -->
<svg version="1.1" id="Layer_1" xmlns="http://www.w3.org/2000/svg" xmlns:xlink="http://www.w3.org/1999/xlink" x="0px" y="0px"
	 viewBox="0 0 25 25" style="enable-background:new 0 0 25 25;" xml:space="preserve">
<style type="text/css">
	.st0{clip-path:url(#SVGID_2_);}
	.st1{fill:#FFFFFF;}
</style>
<g>
	<defs>
		<rect id="SVGID_1_" x="0.5" y="0.4" width="24" height="24"/>
	</defs>
	<clipPath id="SVGID_2_">
		<use xlink:href="#SVGID_1_"  style="overflow:visible;"/>
	</clipPath>
	<g class="st0">
		<path class="st1" d="M24.5,3.4H4.7l0-0.4c-0.1-0.7-0.4-1.4-1-1.9c-0.5-0.5-1.3-0.8-2-0.8H0.5v2h1.2c0.2,0,0.5,0.1,0.7,0.3
			C2.6,2.8,2.7,3,2.7,3.2l1.6,13.5c0.1,0.7,0.4,1.4,1,1.9c0.5,0.5,1.3,0.8,2,0.8h13.2v-2H7.3c-0.2,0-0.5-0.1-0.7-0.3
			c-0.2-0.2-0.3-0.4-0.3-0.6l-0.1-1.1h16.2L24.5,3.4z M20.7,13.4H5.9L5,5.4h17.1L20.7,13.4z"/>
		<path class="st1" d="M7.5,24.4c1.1,0,2-0.9,2-2c0-1.1-0.9-2-2-2s-2,0.9-2,2C5.5,23.5,6.4,24.4,7.5,24.4z"/>
		<path class="st1" d="M17.5,24.4c1.1,0,2-0.9,2-2c0-1.1-0.9-2-2-2c-1.1,0-2,0.9-2,2C15.5,23.5,16.4,24.4,17.5,24.4z"/>
	</g>
</g>
</svg>
