<?xml version="1.0" encoding="utf-8"?>
<!-- Generator: Adobe Illustrator 24.3.0, SVG Export Plug-In . SVG Version: 6.00 Build 0)  -->
<svg width="70" height="70" version="1.1" id="Layer_1" xmlns="http://www.w3.org/2000/svg" xmlns:xlink="http://www.w3.org/1999/xlink" x="0px" y="0px"
	 viewBox="0 0 70 70" style="enable-background:new 0 0 70 70;" xml:space="preserve">
<style type="text/css">
	.st0{clip-path:url(#SVGID_2_);}
	.st1{fill:#FF6D2D;}
	.st2{fill:#154EA0;}
</style>
<g>
	<g>
		<defs>
			<rect id="SVGID_1_" x="0.8" width="69.1" height="69.1"/>
		</defs>
		<clipPath id="SVGID_2_">
			<use xlink:href="#SVGID_1_"  style="overflow:visible;"/>
		</clipPath>
		<g class="st0">
			<path class="st1" d="M14.5,16.5V35c3.5-1.2,12.1-1.4,18.5,7c1.5,3.2,3.9,10.5,1.5,14.5l7,4v-30L14.5,16.5z"/>
			<path class="st2" d="M69.1,14.9L42.2,0.2c-0.4-0.2-0.9-0.2-1.3,0L30.8,5.7c-0.2,0.1-0.4,0.2-0.6,0.3L14,14.9
				c-0.4,0.2-0.7,0.7-0.7,1.2V34c-2.7,0.9-5.2,2.4-7.3,4.4C0.6,43.8-0.8,52.1,2.6,59c0.3,0.7,1.1,0.9,1.8,0.6
				c0.7-0.3,0.9-1.1,0.6-1.8C2.1,52,3.3,44.9,7.9,40.3c2.9-2.9,6.7-4.5,10.8-4.5s7.9,1.6,10.8,4.5S34,47,34,51.1s-1.6,7.9-4.5,10.8
				c-4.6,4.6-11.6,5.8-17.5,2.9c-0.7-0.3-1.5,0-1.8,0.6c-0.3,0.7-0.1,1.5,0.6,1.8c2.5,1.2,5.2,1.8,7.9,1.8c4.7,0,9.3-1.8,12.7-5.3
				c1.6-1.6,2.8-3.4,3.7-5.4l5.8,3.2c0.2,0.1,0.4,0.2,0.6,0.2c0.2,0,0.4-0.1,0.6-0.2L69,46.7c0.4-0.2,0.7-0.7,0.7-1.2v-9.4
				c0-0.7-0.6-1.3-1.3-1.3c-0.7,0-1.3,0.6-1.3,1.3v8.6L42.9,58.1V31.7l8-4.4v7c0,0.5,0.3,0.9,0.7,1.2c0.2,0.1,0.4,0.2,0.7,0.2
				c0.2,0,0.4-0.1,0.7-0.2l5.8-3.2c0.4-0.2,0.7-0.7,0.7-1.2v-8.4l7.7-4.3v7.1c0,0.7,0.6,1.3,1.3,1.3c0.7,0,1.3-0.6,1.3-1.3v-9.4
				C69.8,15.6,69.5,15.2,69.1,14.9z M41.6,2.9l24.1,13.2l-7.6,4.2L34,7.1L41.6,2.9z M41.6,29.3L17.5,16.1l7.9-4.3l24,13.2L41.6,29.3
				z M52.2,23.5l-24-13.2l3-1.7l24.1,13.2L52.2,23.5z M31.4,38.4c-3.4-3.4-7.9-5.3-12.7-5.3c-0.9,0-1.8,0.1-2.7,0.2v-15l24.2,13.3
				v26.5L36,55.8c0.4-1.5,0.6-3.1,0.6-4.7C36.7,46.3,34.8,41.8,31.4,38.4z M56.7,30.3L53.6,32v-6.1l3.1-1.7
				C56.7,24.2,56.7,30.3,56.7,30.3z"/>
			<path class="st1" d="M68.5,29.5c-0.4,0-0.7,0.1-1,0.4s-0.4,0.6-0.4,1s0.1,0.7,0.4,1c0.3,0.3,0.6,0.4,1,0.4s0.7-0.1,1-0.4
				c0.3-0.3,0.4-0.6,0.4-1s-0.1-0.7-0.4-1C69.2,29.7,68.8,29.5,68.5,29.5z"/>
			<path class="st1" d="M14.2,52.5c0.3,0,0.7-0.1,1-0.4c0.5-0.5,0.5-1.4,0-1.9l-0.9-0.9h8c1.9,0,3.5,1.6,3.5,3.5s-1.6,3.5-3.5,3.5
				h-4.7c-0.7,0-1.3,0.6-1.3,1.3s0.6,1.3,1.3,1.3h4.7c3.4,0,6.2-2.8,6.2-6.2s-2.8-6.2-6.2-6.2h-8l0.9-0.9c0.5-0.5,0.5-1.4,0-1.9
				s-1.4-0.5-1.9,0L10,46.9c-0.5,0.5-0.5,1.4,0,1.9l3.2,3.2C13.5,52.3,13.8,52.5,14.2,52.5z"/>
			<path class="st1" d="M7,64.2c-0.4,0-0.8-0.2-1-0.5l0,0c-0.5-0.6-0.4-1.4,0.2-1.9C6.7,61.3,7.5,61.4,8,62s0.4,1.4-0.2,1.9
				C7.6,64.1,7.3,64.2,7,64.2z"/>
		</g>
	</g>
</g>
</svg>
