<?xml version="1.0" encoding="utf-8"?>
<!-- Generator: Adobe Illustrator 24.3.0, SVG Export Plug-In . SVG Version: 6.00 Build 0)  -->
<svg width="70" height="70" version="1.1" id="Layer_1" xmlns="http://www.w3.org/2000/svg" xmlns:xlink="http://www.w3.org/1999/xlink" x="0px" y="0px"
	 viewBox="0 0 70 70" style="enable-background:new 0 0 70 70;" xml:space="preserve">
<style type="text/css">
	.st0{fill:#FF6D2D;}
	.st1{fill:none;}
	.st2{fill:#154EA0;}
	.st3{fill:none;stroke:#000000;stroke-linecap:round;stroke-linejoin:round;}
</style>
<circle class="st0" cx="9.2" cy="8.5" r="7.6"/>
<rect x="0.6" class="st1" width="69.2" height="69.2"/>
<path class="st2" d="M51.4,65.3c-0.7,0-1.3,0.5-1.3,1.2H39.8l-1.6-9.7L40,55c0.3-0.3,0.4-0.6,0.4-1s-0.1-0.7-0.4-1l-1.6-1.6h2.7
	c3,0,5.7,1.5,7.4,3.9c0.4,0.6,1.3,0.8,1.9,0.4c0.6-0.4,0.8-1.3,0.4-1.9c-2.1-3.2-5.7-5.1-9.5-5.1c1.3-1.4,2.1-3.4,2.1-5.5v-2
	c0-4.5-3.7-8.2-8.2-8.2S27,36.9,27,41.4v2c0,2.1,0.8,4,2.1,5.5c-6.3,0-11.5,5.2-11.5,11.6v7.4c0,0.7,0.6,1.4,1.4,1.4h32.4
	c0.7,0,1.4-0.6,1.4-1.4v-1.2C52.7,65.9,52.1,65.3,51.4,65.3z M35.2,56.1l-2-2l2-2l2,2L35.2,56.1z M34.5,59.1
	c0.2,0.1,0.5,0.2,0.7,0.2s0.5-0.1,0.7-0.2l1.2,7.4h-3.8L34.5,59.1z M29.7,41.4c0-3,2.5-5.5,5.5-5.5s5.5,2.5,5.5,5.5v2
	c0,3-2.5,5.5-5.5,5.5s-5.5-2.5-5.5-5.5V41.4z M20.3,60.4c0-4.9,4-8.9,8.9-8.9h2.7l-1.6,1.6c-0.3,0.3-0.4,0.6-0.4,1s0.1,0.7,0.4,1
	l1.8,1.8l-1.6,9.7H20.3V60.4L20.3,60.4z"/>
<path class="st0" d="M28,1.5c0.4,0,9.5,0.3,14,0.5v14.5L28,16V1.5z"/>
<path class="st0" d="M60.2,2l-7.4,12.8l15,0.5L61.2,2.5L60.2,2z"/>
<path class="st3" d="M28,1.5c0.4,0,9.5,0.3,14,0.5v14.5L28,16V1.5z"/>
<path class="st3" d="M60,2l-7,13h15L61,2.5L60,2z"/>
<path class="st2" d="M17.8,8.6C17.8,3.9,14,0,9.2,0S0.6,3.9,0.6,8.6c0,4.8,3.9,8.6,8.6,8.6S17.8,13.4,17.8,8.6z M3.3,8.6
	c0-3.3,2.7-5.9,5.9-5.9c3.3,0,5.9,2.7,5.9,5.9c0,3.3-2.7,5.9-5.9,5.9C5.9,14.6,3.3,11.9,3.3,8.6z"/>
<path class="st2" d="M27.9,17.3h14.6c0.7,0,1.4-0.6,1.4-1.4V1.4c0-0.7-0.6-1.4-1.4-1.4H27.9c-0.7,0-1.4,0.6-1.4,1.4V16
	C26.5,16.7,27.1,17.3,27.9,17.3z M29.2,2.7h11.9v11.9H29.2V2.7z"/>
<path class="st2" d="M69.6,14.7L61.8,1.2c-0.2-0.4-0.7-0.7-1.2-0.7s-0.9,0.3-1.2,0.7l-7.8,13.5c-0.2,0.4-0.2,0.9,0,1.4
	c0.2,0.4,0.7,0.7,1.2,0.7h15.6c0.5,0,0.9-0.3,1.2-0.7C69.8,15.7,69.8,15.1,69.6,14.7z M55.2,14l5.5-9.5l5.5,9.5H55.2z"/>
<path class="st2" d="M35.2,30.6c0.7,0,1.4-0.6,1.4-1.4v-3.9l0.1,0.1c0.3,0.4,0.7,0.6,1.1,0.6c0.3,0,0.5-0.1,0.8-0.3
	c0.6-0.4,0.7-1.3,0.3-1.9l-2.5-3.5c-0.3-0.4-0.7-0.6-1.1-0.6c-0.4,0-0.8,0.2-1.1,0.6l-2.5,3.5c-0.4,0.6-0.3,1.5,0.3,1.9
	s1.5,0.3,1.9-0.3l0.1-0.1v3.9C33.8,30,34.4,30.6,35.2,30.6z"/>
<path class="st2" d="M24,41.5c0-0.7-0.6-1.4-1.4-1.4h-12V25.4l0.1,0.1c0.3,0.4,0.7,0.6,1.1,0.6c0.3,0,0.5-0.1,0.8-0.3
	c0.6-0.4,0.7-1.3,0.3-1.9l-2.5-3.5c-0.3-0.4-0.7-0.6-1.1-0.6c-0.4,0-0.8,0.2-1.1,0.6l-2.5,3.5c-0.4,0.6-0.3,1.5,0.3,1.9
	s1.5,0.3,1.9-0.3L8,25.4v16.2C8,42.3,8.6,43,9.4,43h13.5C23.4,42.9,24,42.3,24,41.5z"/>
<path class="st2" d="M62.2,20.4c-0.3-0.4-0.7-0.6-1.1-0.6S60.3,20,60,20.4l-2.5,3.5c-0.4,0.6-0.3,1.5,0.3,1.9s1.5,0.3,1.9-0.3
	l0.1-0.1v14.8H47.6c-0.7,0-1.4,0.6-1.4,1.4c0,0.7,0.6,1.4,1.4,1.4h13.5c0.7,0,1.4-0.6,1.4-1.4V25.4l0.1,0.1c0.3,0.4,0.7,0.6,1.1,0.6
	c0.3,0,0.5-0.1,0.8-0.3c0.6-0.4,0.7-1.3,0.3-1.9L62.2,20.4z"/>
<path class="st0" d="M51.4,61.9c0.7,0,1.4-0.6,1.4-1.4s-0.6-1.4-1.4-1.4c-0.7,0-1.4,0.6-1.4,1.4S50.6,61.9,51.4,61.9z"/>
</svg>
